<svg width="24" height="24" viewBox="0 0 24 24" fill="none" xmlns="http://www.w3.org/2000/svg">
<path d="M21.1429 6.857H8.57146M6.28575 6.857H2.85718M21.1429 18.2856H8.57146M6.28575 18.2856H2.85718M15.4286 12.5713H2.85718M21.1429 12.5713H17.7143M7.42861 4.57129C7.73171 4.57129 8.0224 4.6917 8.23673 4.90602C8.45106 5.12035 8.57146 5.41104 8.57146 5.71415V7.99986C8.57146 8.30297 8.45106 8.59366 8.23673 8.80798C8.0224 9.02231 7.73171 9.14272 7.42861 9.14272C7.1255 9.14272 6.83481 9.02231 6.62048 8.80798C6.40616 8.59366 6.28575 8.30297 6.28575 7.99986V5.71415C6.28575 5.41104 6.40616 5.12035 6.62048 4.90602C6.83481 4.6917 7.1255 4.57129 7.42861 4.57129ZM7.42861 15.9999C7.73171 15.9999 8.0224 16.1203 8.23673 16.3346C8.45106 16.5489 8.57146 16.8396 8.57146 17.1427V19.4284C8.57146 19.7315 8.45106 20.0222 8.23673 20.2366C8.0224 20.4509 7.73171 20.5713 7.42861 20.5713C7.1255 20.5713 6.83481 20.4509 6.62048 20.2366C6.40616 20.0222 6.28575 19.7315 6.28575 19.4284V17.1427C6.28575 16.8396 6.40616 16.5489 6.62048 16.3346C6.83481 16.1203 7.1255 15.9999 7.42861 15.9999ZM16.5715 10.2856C16.8746 10.2856 17.1653 10.406 17.3796 10.6203C17.5939 10.8346 17.7143 11.1253 17.7143 11.4284V13.7141C17.7143 14.0173 17.5939 14.3079 17.3796 14.5223C17.1653 14.7366 16.8746 14.857 16.5715 14.857C16.2684 14.857 15.9777 14.7366 15.7633 14.5223C15.549 14.3079 15.4286 14.0173 15.4286 13.7141V11.4284C15.4286 11.1253 15.549 10.8346 15.7633 10.6203C15.9777 10.406 16.2684 10.2856 16.5715 10.2856Z" stroke="#787777" stroke-width="1.4" stroke-linecap="round" stroke-linejoin="round"/>
</svg>
