<svg width="22" height="22" viewBox="0 0 22 22" fill="none" xmlns="http://www.w3.org/2000/svg">
<path d="M11 3.3002C8.95778 3.3002 6.99926 4.11144 5.55523 5.55547C4.1112 6.9995 3.29995 8.95803 3.29995 11.0002V12.1002H4.94995C5.09582 12.1002 5.23571 12.1581 5.33886 12.2613C5.442 12.3644 5.49995 12.5043 5.49995 12.6502V19.2502C5.49995 19.3961 5.442 19.536 5.33886 19.6391C5.23571 19.7422 5.09582 19.8002 4.94995 19.8002H4.39995C3.81647 19.8002 3.2569 19.5684 2.84432 19.1558C2.43174 18.7432 2.19995 18.1837 2.19995 17.6002V11.0002C2.19995 8.66629 3.12709 6.42798 4.77741 4.77766C6.42773 3.12734 8.66605 2.2002 11 2.2002C13.3339 2.2002 15.5722 3.12734 17.2225 4.77766C18.8728 6.42798 19.7999 8.66629 19.7999 11.0002V17.6002C19.7999 18.1837 19.5682 18.7432 19.1556 19.1558C18.743 19.5684 18.1834 19.8002 17.5999 19.8002H17.0499C16.9041 19.8002 16.7642 19.7422 16.661 19.6391C16.5579 19.536 16.5 19.3961 16.5 19.2502V12.6502C16.5 12.5043 16.5579 12.3644 16.661 12.2613C16.7642 12.1581 16.9041 12.1002 17.0499 12.1002H18.6999V11.0002C18.6999 8.95803 17.8887 6.9995 16.4447 5.55547C15.0006 4.11144 13.0421 3.3002 11 3.3002ZM11.55 11.5502C11.55 11.4043 11.492 11.2644 11.3889 11.1613C11.2857 11.0581 11.1458 11.0002 11 11.0002C10.8541 11.0002 10.7142 11.0581 10.611 11.1613C10.5079 11.2644 10.45 11.4043 10.45 11.5502V19.2502C10.45 19.3961 10.5079 19.536 10.611 19.6391C10.7142 19.7422 10.8541 19.8002 11 19.8002C11.1458 19.8002 11.2857 19.7422 11.3889 19.6391C11.492 19.536 11.55 19.3961 11.55 19.2502V11.5502ZM8.24995 13.2002C8.39582 13.2002 8.53571 13.2581 8.63886 13.3613C8.742 13.4644 8.79995 13.6043 8.79995 13.7502V18.1502C8.79995 18.2961 8.742 18.436 8.63886 18.5391C8.53571 18.6422 8.39582 18.7002 8.24995 18.7002C8.10408 18.7002 7.96419 18.6422 7.86104 18.5391C7.7579 18.436 7.69995 18.2961 7.69995 18.1502V13.7502C7.69995 13.6043 7.7579 13.4644 7.86104 13.3613C7.96419 13.2581 8.10408 13.2002 8.24995 13.2002ZM14.2999 13.7502C14.2999 13.6043 14.242 13.4644 14.1389 13.3613C14.0357 13.2581 13.8958 13.2002 13.75 13.2002C13.6041 13.2002 13.4642 13.2581 13.361 13.3613C13.2579 13.4644 13.2 13.6043 13.2 13.7502V18.1502C13.2 18.2961 13.2579 18.436 13.361 18.5391C13.4642 18.6422 13.6041 18.7002 13.75 18.7002C13.8958 18.7002 14.0357 18.6422 14.1389 18.5391C14.242 18.436 14.2999 18.2961 14.2999 18.1502V13.7502Z" fill="#FFE485"/>
</svg>
