<svg width="16" height="16" viewBox="0 0 16 16" fill="none" xmlns="http://www.w3.org/2000/svg">
<g clip-path="url(#clip0_1415_556)">
<path d="M2.46933 3.22173H3.47255V2.72013H2.72014V1.71691H2.21853V2.97093C2.21853 3.10933 2.33067 3.22173 2.46933 3.22173Z" fill="white"/>
<path fill-rule="evenodd" clip-rule="evenodd" d="M4.97736 2.72013C4.97736 3.96463 3.9649 4.97736 2.72013 4.97736C1.47535 4.97736 0.462891 3.96463 0.462891 2.72013C0.462891 1.47562 1.47535 0.462891 2.72013 0.462891C3.9649 0.462891 4.97736 1.47562 4.97736 2.72013ZM4.47575 2.72013C4.47575 1.75201 3.68797 0.964498 2.72013 0.964498C1.75228 0.964498 0.964498 1.75201 0.964498 2.72013C0.964498 3.68824 1.75228 4.47575 2.72013 4.47575C3.68797 4.47575 4.47575 3.68824 4.47575 2.72013Z" fill="white"/>
<path fill-rule="evenodd" clip-rule="evenodd" d="M4.22495 5.72977C4.22495 5.31498 4.56257 4.97736 4.97736 4.97736C5.38572 4.97736 5.71906 5.3044 5.72977 5.71021L5.91694 7.01916C5.93422 7.14202 6.041 7.2346 6.16493 7.2346H6.99036C6.83106 7.02439 6.73299 6.76554 6.73299 6.48218C6.73299 5.79073 7.29556 5.22816 7.98701 5.22816C8.67846 5.22816 9.24103 5.79073 9.24103 6.48218C9.24103 6.76554 9.14296 7.02439 8.98366 7.2346H9.86576C9.97736 7.2346 10.0765 7.15984 10.1068 7.05279L10.496 5.69119C10.5161 5.29408 10.8454 4.97736 11.2475 4.97736C11.6623 4.97736 11.9999 5.31498 11.9999 5.72977C11.9999 5.75215 11.9969 5.77412 11.991 5.79596L11.3395 8.18516C11.2524 8.50335 10.9665 8.72816 10.6385 8.73915L9.49183 8.94856V14.6333C9.49183 15.1174 9.09808 15.5111 8.61402 15.5111C8.36817 15.5111 8.14658 15.409 7.98701 15.2457C7.82744 15.409 7.60585 15.5111 7.36 15.5111C6.87594 15.5111 6.48219 15.1174 6.48219 14.6333V13.8277L6.4227 14.0682C6.25376 14.0267 6.08495 13.9778 5.92163 13.9231L6.08093 13.4475C6.21182 13.4912 6.347 13.5288 6.48219 13.5636V8.94762L5.37032 8.73888C5.01756 8.72736 4.71932 8.47133 4.65582 8.12165L4.22924 5.77465C4.22642 5.75992 4.22495 5.74478 4.22495 5.72977ZM7.98701 5.72977C7.57222 5.72977 7.2346 6.06739 7.2346 6.48218C7.2346 6.89698 7.57222 7.2346 7.98701 7.2346C8.4018 7.2346 8.73942 6.89698 8.73942 6.48218C8.73942 6.06739 8.4018 5.72977 7.98701 5.72977ZM9.86576 7.7362H6.16466C5.79274 7.7362 5.47267 7.4586 5.42002 7.09017L5.23071 5.76541C5.22897 5.75362 5.22817 5.74156 5.22817 5.72977C5.22817 5.59164 5.11576 5.47897 4.97736 5.47897C4.8454 5.47897 4.73688 5.58159 4.72736 5.71102L5.14912 8.03189C5.17096 8.15126 5.27479 8.23781 5.39591 8.23781C5.41131 8.23781 5.42699 8.23928 5.4424 8.2421L6.77935 8.4929C6.89778 8.51514 6.98379 8.61884 6.98379 8.73942V14.6333C6.98379 14.8407 7.1526 15.0095 7.36 15.0095C7.5674 15.0095 7.73621 14.8407 7.73621 14.6333V11.2475H8.23781V14.6333C8.23781 14.8407 8.40662 15.0095 8.61402 15.0095C8.82141 15.0095 8.99022 14.8407 8.99022 14.6333V8.73942C8.99022 8.6183 9.07677 8.51447 9.19588 8.49263L10.5685 8.24183C10.5836 8.23902 10.5983 8.23781 10.6136 8.23781C10.7266 8.23781 10.8258 8.16185 10.8554 8.05319L11.4968 5.70191C11.4827 5.57677 11.3763 5.47897 11.2475 5.47897C11.1091 5.47897 10.9967 5.59164 10.9967 5.72977C10.9967 5.75308 10.9934 5.7764 10.9871 5.79877L10.5894 7.19052C10.4976 7.51179 10.2002 7.7362 9.86576 7.7362Z" fill="white"/>
<path d="M11.2475 1.71691H11.7491V2.46932H11.2475V1.71691Z" fill="white"/>
<path d="M12.7523 1.4661H12.2507V2.46932H12.7523V1.4661Z" fill="white"/>
<path d="M13.2539 1.71691H13.7555V2.46932H13.2539V1.71691Z" fill="white"/>
<path fill-rule="evenodd" clip-rule="evenodd" d="M15.0095 2.97093H15.2603C15.399 2.97093 15.5111 3.08334 15.5111 3.22173C15.5111 3.91319 14.9486 4.47575 14.2571 4.47575H10.7459C10.0544 4.47575 9.49185 3.91319 9.49185 3.22173C9.49185 3.08334 9.60398 2.97093 9.74265 2.97093H9.99345V0.713694C9.99345 0.575297 10.1056 0.462891 10.2443 0.462891H14.7587C14.8974 0.462891 15.0095 0.575297 15.0095 0.713694V2.97093ZM14.5079 0.964498H10.4951V2.97093H14.5079V0.964498ZM10.7459 3.97414H14.2571C14.5842 3.97414 14.8631 3.76447 14.9667 3.47254H10.0363C10.1399 3.76447 10.4188 3.97414 10.7459 3.97414Z" fill="white"/>
<path d="M3.22174 11.7491H1.46611V12.2507H3.22174V11.7491Z" fill="white"/>
<path d="M1.46611 12.7523H3.47254V13.2539H1.46611V12.7523Z" fill="white"/>
<path d="M3.47254 13.7555H1.46611V14.2571H3.47254V13.7555Z" fill="white"/>
<path fill-rule="evenodd" clip-rule="evenodd" d="M4.22495 15.5111H0.713694C0.575029 15.5111 0.462891 15.3987 0.462891 15.2603V10.7458C0.462891 10.6075 0.575029 10.495 0.713694 10.495H2.97093C3.02814 10.495 3.08307 10.5143 3.12768 10.55L4.3817 11.5532C4.44119 11.6009 4.47575 11.6728 4.47575 11.7491V15.2603C4.47575 15.3987 4.36361 15.5111 4.22495 15.5111ZM2.88291 10.9967H0.964498V15.0095H3.97414V11.8695L2.88291 10.9967Z" fill="white"/>
<path fill-rule="evenodd" clip-rule="evenodd" d="M12.7523 9.99344C11.2311 9.99344 9.99346 11.2311 9.99346 12.7523C9.99346 13.6502 10.4266 14.4467 11.0925 14.9508C11.0929 14.9512 11.0933 14.9516 11.0937 14.952C11.094 14.9524 11.0942 14.9528 11.0945 14.9533C11.0951 14.9541 11.0956 14.955 11.0965 14.9557C11.1022 14.9599 11.1081 14.9639 11.114 14.9678C11.1191 14.9712 11.1241 14.9746 11.129 14.9782C11.1738 15.0107 11.2187 15.0423 11.265 15.0722C11.28 15.0819 11.2951 15.0908 11.3102 15.0998C11.3174 15.1041 11.3248 15.1084 11.332 15.1128L11.3451 15.1207C11.3857 15.1452 11.4263 15.1698 11.4684 15.1921C11.5002 15.2089 11.5326 15.224 11.565 15.239L11.5898 15.2505C11.6407 15.2744 11.6919 15.2969 11.7443 15.3175C11.798 15.3388 11.852 15.3593 11.9068 15.3771C11.9302 15.3847 11.954 15.3913 11.9777 15.3979L11.9927 15.4021C12.046 15.4173 12.0997 15.4317 12.1541 15.4436C12.1832 15.4502 12.2124 15.4559 12.2417 15.4614C12.2996 15.4723 12.3577 15.481 12.4164 15.4883C12.425 15.4894 12.4335 15.4905 12.442 15.4916C12.4597 15.4939 12.4772 15.4961 12.4949 15.4979C12.5803 15.5062 12.6658 15.5111 12.7523 15.5111C12.8388 15.5111 12.9243 15.5062 13.0097 15.4981C13.0279 15.4964 13.0461 15.494 13.0642 15.4917C13.0722 15.4906 13.0802 15.4896 13.0882 15.4886C13.1469 15.4812 13.2053 15.4728 13.2629 15.4617C13.2922 15.4562 13.3214 15.4502 13.3505 15.4439C13.4049 15.4318 13.4586 15.4176 13.5119 15.4023C13.5214 15.3996 13.5308 15.397 13.5402 15.3943C13.5595 15.3889 13.5788 15.3835 13.5978 15.3774C13.6526 15.3596 13.7066 15.3391 13.7603 15.3178C13.8127 15.2972 13.8639 15.2744 13.9148 15.2508L13.9396 15.2393C13.972 15.2242 14.0044 15.2091 14.0362 15.1924C14.0792 15.1696 14.1206 15.1446 14.1622 15.1194L14.1726 15.1131C14.1797 15.1088 14.1869 15.1045 14.194 15.1002C14.2092 15.0912 14.2246 15.082 14.2396 15.0725C14.2859 15.0426 14.3311 15.0107 14.3756 14.9784C14.3803 14.975 14.3851 14.9718 14.3899 14.9686L14.3931 14.9664L14.3982 14.9629L14.4022 14.9601L14.405 14.9581L14.4081 14.9558C14.4085 14.9555 14.4089 14.9551 14.4092 14.9547L14.4097 14.954L14.4101 14.9534C14.4107 14.9526 14.4113 14.9517 14.4121 14.9511C15.078 14.4467 15.5111 13.6502 15.5111 12.7523C15.5111 11.2311 14.2735 9.99344 12.7523 9.99344ZM11.4983 14.6261V14.0063C11.4983 13.453 11.9482 13.0031 12.5015 13.0031H13.0031C13.5564 13.0031 14.0063 13.453 14.0063 14.0063V14.6261C13.9131 14.6888 13.8157 14.7437 13.7152 14.7909L13.7148 14.791L13.7145 14.7911C13.1108 15.0734 12.3936 15.0734 11.7899 14.7911C11.7898 14.7911 11.7896 14.791 11.7895 14.791C11.7894 14.7909 11.7893 14.7909 11.7893 14.7909C11.6889 14.7437 11.5915 14.6888 11.4983 14.6261ZM12.7523 12.5015C12.4756 12.5015 12.2507 12.2765 12.2507 11.9999C12.2507 11.7232 12.4756 11.4983 12.7523 11.4983C13.029 11.4983 13.2539 11.7232 13.2539 11.9999C13.2539 12.2765 13.029 12.5015 12.7523 12.5015ZM14.5079 14.1679V14.0063C14.5079 13.3686 14.1087 12.8236 13.5473 12.6048C13.6761 12.4362 13.7555 12.2282 13.7555 11.9999C13.7555 11.4465 13.3056 10.9967 12.7523 10.9967C12.199 10.9967 11.7491 11.4465 11.7491 11.9999C11.7491 12.2282 11.8285 12.4362 11.9573 12.6048C11.3959 12.8236 10.9967 13.3686 10.9967 14.0063V14.1679C10.6837 13.7803 10.4951 13.2881 10.4951 12.7523C10.4951 11.5078 11.5075 10.495 12.7523 10.495C13.9971 10.495 15.0095 11.5078 15.0095 12.7523C15.0095 13.2882 14.8209 13.7803 14.5079 14.1679Z" fill="white"/>
<path d="M9.43813 1.37728C9.26838 1.33869 9.09609 1.30681 8.92554 1.28229L8.85413 1.77867C9.01128 1.80118 9.17058 1.83079 9.3276 1.86643L9.43813 1.37728Z" fill="white"/>
<path d="M5.35477 1.76836L5.55775 2.22709C5.41198 2.29153 5.26648 2.36268 5.12527 2.43918L4.88679 1.99813C5.03926 1.91533 5.19708 1.83802 5.35477 1.76836Z" fill="white"/>
<path d="M7.987 1.71691C8.11736 1.71691 8.24665 1.7212 8.375 1.72924L8.40729 1.22857C8.26822 1.21986 8.12795 1.2153 7.987 1.2153L7.88599 1.21611L7.89376 1.71772L7.987 1.71691Z" fill="white"/>
<path d="M6.33975 1.42498L6.46609 1.91051C6.31188 1.95097 6.15714 1.99786 6.00561 2.05078L5.84055 1.57677C6.00494 1.51957 6.17268 1.46839 6.33975 1.42498Z" fill="white"/>
<path d="M7.41319 1.74371L7.36576 1.24438C7.19293 1.26072 7.01916 1.2843 6.84915 1.31418L6.93583 1.80815C7.09285 1.78068 7.25335 1.75911 7.41319 1.74371Z" fill="white"/>
<path d="M2.21452 9.44749C2.25967 9.60062 2.31179 9.75389 2.36926 9.90261L1.90155 10.0835C1.83912 9.92203 1.78245 9.7559 1.73354 9.58937L2.21452 9.44749Z" fill="white"/>
<path d="M1.50605 7.00884L2.00458 7.06431C2.02213 6.90528 2.04652 6.74531 2.07679 6.58856L1.58456 6.49317C1.55161 6.66278 1.52535 6.83628 1.50605 7.00884Z" fill="white"/>
<path d="M1.47335 8.04971C1.46866 7.94587 1.46611 7.84124 1.46611 7.7362C1.46611 7.66667 1.46705 7.59754 1.4696 7.52854L1.97067 7.54515C1.96866 7.60852 1.96772 7.67229 1.96772 7.7362C1.96772 7.83347 1.97027 7.93033 1.97455 8.02639L1.47335 8.04971Z" fill="white"/>
<path d="M2.09635 8.98071C2.06352 8.82342 2.03673 8.66372 2.01663 8.5059L1.51877 8.5694C1.54061 8.74022 1.56969 8.91319 1.60559 9.08347L2.09635 8.98071Z" fill="white"/>
<path d="M1.86387 5.48875L2.33467 5.66131C2.2792 5.8123 2.22976 5.96624 2.18689 6.11951L1.70391 5.98513C1.74999 5.819 1.80399 5.65207 1.86387 5.48875Z" fill="white"/>
<path d="M4.96274 13.515C5.11655 13.5955 5.27504 13.6707 5.43407 13.7385L5.63048 13.2769C5.48391 13.2145 5.33748 13.1451 5.1956 13.0706L4.96274 13.515Z" fill="white"/>
<path d="M14.3189 9.30091L13.832 9.18087C13.8596 9.06847 13.8841 8.95459 13.9055 8.83977L14.3986 8.93154C14.3756 9.05587 14.3489 9.1794 14.3189 9.30091Z" fill="white"/>
<path d="M13.9516 6.92216C13.9732 7.08106 13.9885 7.2421 13.9971 7.40113L14.4981 7.37433C14.4889 7.20204 14.472 7.0272 14.449 6.8549L13.9516 6.92216Z" fill="white"/>
<path d="M14.0046 7.88318L14.5062 7.89497C14.5021 8.06605 14.4912 8.24129 14.4733 8.4152L13.9741 8.36402C13.9908 8.20325 14.0008 8.0414 14.0046 7.88318Z" fill="white"/>
<path d="M13.394 5.08776C13.4644 5.23111 13.5297 5.37916 13.5882 5.5276L14.0549 5.34379C13.9913 5.18248 13.9205 5.02197 13.844 4.86656L13.394 5.08776Z" fill="white"/>
<path d="M13.8686 6.44829C13.834 6.2906 13.7931 6.13385 13.7469 5.98259L14.2269 5.83615C14.2766 6.00014 14.321 6.16989 14.3584 6.34098L13.8686 6.44829Z" fill="white"/>
</g>
<defs>
<clipPath id="clip0_1415_556">
<rect width="16" height="16" fill="white"/>
</clipPath>
</defs>
</svg>
