<svg width="14" height="15" viewBox="0 0 14 15" fill="none" xmlns="http://www.w3.org/2000/svg">
<g clip-path="url(#clip0_1415_3789)">
<path d="M7 14.3472C10.866 14.3472 14 11.2132 14 7.34717C14 3.48117 10.866 0.347168 7 0.347168C3.13401 0.347168 0 3.48117 0 7.34717C0 11.2132 3.13401 14.3472 7 14.3472Z" fill="#F0F0F0"/>
<path d="M1.44685 3.08545C0.896998 3.80084 0.482385 4.62539 0.240967 5.52115H3.88255L1.44685 3.08545Z" fill="#0052B4"/>
<path d="M13.7587 5.52112C13.5173 4.62539 13.1027 3.80084 12.5528 3.08545L10.1172 5.52112H13.7587Z" fill="#0052B4"/>
<path d="M0.240967 9.17334C0.482412 10.0691 0.897025 10.8936 1.44685 11.609L3.88247 9.17334H0.240967Z" fill="#0052B4"/>
<path d="M11.2616 1.79429C10.5462 1.24444 9.72168 0.829824 8.82593 0.588379V4.22994L11.2616 1.79429Z" fill="#0052B4"/>
<path d="M2.73804 12.9002C3.45343 13.4501 4.27798 13.8647 5.17371 14.1061V10.4646L2.73804 12.9002Z" fill="#0052B4"/>
<path d="M5.17368 0.588379C4.27795 0.829824 3.4534 1.24444 2.73804 1.79427L5.17368 4.22991V0.588379Z" fill="#0052B4"/>
<path d="M8.82593 14.1061C9.72165 13.8647 10.5462 13.4501 11.2616 12.9002L8.82593 10.4646V14.1061Z" fill="#0052B4"/>
<path d="M10.1172 9.17334L12.5528 11.609C13.1027 10.8936 13.5173 10.0691 13.7587 9.17334H10.1172Z" fill="#0052B4"/>
<path d="M13.9407 6.43413H7.91309L7.91306 0.406422C7.61417 0.367512 7.30945 0.347168 7 0.347168C6.6905 0.347168 6.38583 0.367512 6.08696 0.406422V6.43408L0.0592539 6.4341C0.0203438 6.733 0 7.03772 0 7.34717C0 7.65667 0.0203438 7.96134 0.0592539 8.2602H6.08691L6.08694 14.2879C6.38583 14.3268 6.6905 14.3472 7 14.3472C7.30945 14.3472 7.61417 14.3269 7.91303 14.2879V8.26026L13.9407 8.26023C13.9797 7.96134 14 7.65667 14 7.34717C14 7.03772 13.9797 6.733 13.9407 6.43413Z" fill="#D80027"/>
<path d="M8.82617 9.17337L11.9498 12.297C12.0935 12.1534 12.2305 12.0033 12.3613 11.8476L9.68701 9.17334H8.82617V9.17337Z" fill="#D80027"/>
<path d="M5.17396 9.17334H5.17391L2.05029 12.297C2.1939 12.4406 2.34405 12.5777 2.49969 12.7084L5.17396 10.0341V9.17334Z" fill="#D80027"/>
<path d="M5.17378 5.52118V5.52113L2.05014 2.39746C1.90648 2.54107 1.76943 2.69121 1.63867 2.84686L4.31297 5.52116H5.17378V5.52118Z" fill="#D80027"/>
<path d="M8.82617 5.52122L11.9498 2.39753C11.8062 2.25386 11.6561 2.11681 11.5004 1.98608L8.82617 4.66038V5.52122Z" fill="#D80027"/>
</g>
<defs>
<clipPath id="clip0_1415_3789">
<rect y="0.347168" width="14" height="14" rx="4" fill="white"/>
</clipPath>
</defs>
</svg>
