<svg width="20" height="20" viewBox="0 0 20 20" fill="none" xmlns="http://www.w3.org/2000/svg">
<path d="M9.41667 16.6666C9.5 16.9444 9.61472 17.2327 9.76084 17.5316C9.90695 17.8305 10.0561 18.0977 10.2083 18.3333H4.16667C3.70833 18.3333 3.31583 18.17 2.98917 17.8433C2.6625 17.5166 2.49945 17.1244 2.5 16.6666V3.33329C2.5 2.87496 2.66333 2.48246 2.99 2.15579C3.31667 1.82913 3.70889 1.66607 4.16667 1.66663H14.1667C14.625 1.66663 15.0175 1.82996 15.3442 2.15663C15.6708 2.48329 15.8339 2.87552 15.8333 3.33329V9.24996C15.5833 9.22218 15.3056 9.20829 15 9.20829C14.6944 9.20829 14.4167 9.22218 14.1667 9.24996V3.33329H10V8.43746C10 8.60413 9.93056 8.72579 9.79167 8.80246C9.65278 8.87913 9.51389 8.87552 9.375 8.79163L7.91667 7.91663L6.45833 8.79163C6.31945 8.87496 6.18056 8.87857 6.04167 8.80246C5.90278 8.72635 5.83333 8.60441 5.83333 8.43663V3.33329H4.16667V16.6666H9.41667ZM15 19.1666C13.8472 19.1666 12.8644 18.7602 12.0517 17.9475C11.2389 17.1347 10.8328 16.1522 10.8333 15C10.8333 13.8472 11.2397 12.8644 12.0525 12.0516C12.8653 11.2389 13.8478 10.8327 15 10.8333C16.1528 10.8333 17.1356 11.2397 17.9483 12.0525C18.7611 12.8652 19.1672 13.8477 19.1667 15C19.1667 16.1527 18.7603 17.1355 17.9475 17.9483C17.1347 18.7611 16.1522 19.1672 15 19.1666ZM14.6042 16.6875L16.7292 15.3541C16.8681 15.2708 16.9375 15.1527 16.9375 15C16.9375 14.8472 16.8681 14.7291 16.7292 14.6458L14.6042 13.3125C14.4653 13.2291 14.3228 13.2255 14.1767 13.3016C14.0306 13.3777 13.9578 13.4994 13.9583 13.6666V16.3333C13.9583 16.5 14.0314 16.6216 14.1775 16.6983C14.3236 16.775 14.4658 16.7713 14.6042 16.6875ZM9.41667 3.33329H4.16667H14.1667H9.16667H9.41667Z" fill="white"/>
</svg>
