<svg width="25" height="24" viewBox="0 0 25 24" fill="none" xmlns="http://www.w3.org/2000/svg">
<g clip-path="url(#clip0_1400_959)">
<path fill-rule="evenodd" clip-rule="evenodd" d="M7.70005 1.20001C7.70005 0.537245 8.23732 0 8.90006 0H16.1001C16.7629 0 17.3001 0.537245 17.3001 1.20001C17.3001 1.86277 16.7629 2.40002 16.1001 2.40002H8.90006C8.23732 2.40002 7.70005 1.86277 7.70005 1.20001ZM5.29977 3.6C4.63702 3.6 4.09976 4.13724 4.09976 4.80001C4.09976 5.46277 4.63702 6.00002 5.29977 6.00002H19.6998C20.3626 6.00002 20.8998 5.46277 20.8998 4.80001C20.8998 4.13724 20.3626 3.6 19.6998 3.6H5.29977ZM2.89978 7.2C1.57428 7.2 0.499756 8.27452 0.499756 9.60002V21.6001C0.499756 22.9256 1.57428 24.0001 2.89978 24.0001H22.0999C23.4255 24.0001 24.5 22.9256 24.5 21.6001V9.60002C24.5 8.27452 23.4255 7.2 22.0999 7.2H2.89978ZM2.89978 9.60002H22.0999V21.6001H2.89978V9.60002ZM11.9654 12.2016C11.5971 11.9561 11.1237 11.9332 10.7334 12.142C10.3433 12.3508 10.0997 12.7575 10.0997 13.2V18.0001C10.0997 18.4426 10.3433 18.8493 10.7334 19.0581C11.1237 19.2669 11.5971 19.244 11.9654 18.9986L15.5654 16.5986C15.8992 16.376 16.0998 16.0013 16.0998 15.6C16.0998 15.1988 15.8992 14.8241 15.5654 14.6016L11.9654 12.2016ZM12.7364 15.6L12.4997 15.7579V15.4422L12.7364 15.6ZM6.49976 12.0001C6.49976 12.6628 5.96249 13.2001 5.29975 13.2001C4.63701 13.2001 4.09974 12.6628 4.09974 12.0001C4.09974 11.3373 4.63701 10.8001 5.29975 10.8001C5.96249 10.8001 6.49976 11.3373 6.49976 12.0001Z" fill="#787777"/>
</g>
<defs>
<clipPath id="clip0_1400_959">
<rect width="24" height="24" fill="white" transform="translate(0.5)"/>
</clipPath>
</defs>
</svg>
