<svg width="10" height="10" viewBox="0 0 10 10" fill="none" xmlns="http://www.w3.org/2000/svg">
<path d="M4.99995 0.660059C3.88604 0.660059 2.81776 1.10256 2.0301 1.89021C1.24245 2.67786 0.799951 3.74615 0.799951 4.86006V5.46006H1.69995C1.77952 5.46006 1.85582 5.49167 1.91208 5.54793C1.96834 5.60419 1.99995 5.68049 1.99995 5.76006V9.36006C1.99995 9.43962 1.96834 9.51593 1.91208 9.57219C1.85582 9.62845 1.77952 9.66006 1.69995 9.66006H1.39995C1.08169 9.66006 0.776467 9.53363 0.551423 9.30859C0.326379 9.08354 0.199951 8.77832 0.199951 8.46006V4.86006C0.199951 3.58702 0.705664 2.36612 1.60584 1.46595C2.50601 0.565772 3.72691 0.0600586 4.99995 0.0600586C6.27299 0.0600586 7.49389 0.565772 8.39406 1.46595C9.29424 2.36612 9.79995 3.58702 9.79995 4.86006V8.46006C9.79995 8.77832 9.67352 9.08354 9.44848 9.30859C9.22344 9.53363 8.91821 9.66006 8.59995 9.66006H8.29995C8.22039 9.66006 8.14408 9.62845 8.08782 9.57219C8.03156 9.51593 7.99995 9.43962 7.99995 9.36006V5.76006C7.99995 5.68049 8.03156 5.60419 8.08782 5.54793C8.14408 5.49167 8.22039 5.46006 8.29995 5.46006H9.19995V4.86006C9.19995 3.74615 8.75745 2.67786 7.9698 1.89021C7.18215 1.10256 6.11386 0.660059 4.99995 0.660059ZM5.29995 5.16006C5.29995 5.08049 5.26834 5.00419 5.21208 4.94793C5.15582 4.89167 5.07952 4.86006 4.99995 4.86006C4.92039 4.86006 4.84408 4.89167 4.78782 4.94793C4.73156 5.00419 4.69995 5.08049 4.69995 5.16006V9.36006C4.69995 9.43962 4.73156 9.51593 4.78782 9.57219C4.84408 9.62845 4.92039 9.66006 4.99995 9.66006C5.07952 9.66006 5.15582 9.62845 5.21208 9.57219C5.26834 9.51593 5.29995 9.43962 5.29995 9.36006V5.16006ZM3.49995 6.06006C3.57952 6.06006 3.65582 6.09167 3.71208 6.14793C3.76834 6.20419 3.79995 6.28049 3.79995 6.36006V8.76006C3.79995 8.83962 3.76834 8.91593 3.71208 8.97219C3.65582 9.02845 3.57952 9.06006 3.49995 9.06006C3.42039 9.06006 3.34408 9.02845 3.28782 8.97219C3.23156 8.91593 3.19995 8.83962 3.19995 8.76006V6.36006C3.19995 6.28049 3.23156 6.20419 3.28782 6.14793C3.34408 6.09167 3.42039 6.06006 3.49995 6.06006ZM6.79995 6.36006C6.79995 6.28049 6.76834 6.20419 6.71208 6.14793C6.65582 6.09167 6.57952 6.06006 6.49995 6.06006C6.42039 6.06006 6.34408 6.09167 6.28782 6.14793C6.23156 6.20419 6.19995 6.28049 6.19995 6.36006V8.76006C6.19995 8.83962 6.23156 8.91593 6.28782 8.97219C6.34408 9.02845 6.42039 9.06006 6.49995 9.06006C6.57952 9.06006 6.65582 9.02845 6.71208 8.97219C6.76834 8.91593 6.79995 8.83962 6.79995 8.76006V6.36006Z" fill="#787777"/>
</svg>
