<svg width="25" height="24" viewBox="0 0 25 24" fill="none" xmlns="http://www.w3.org/2000/svg">
<path fill-rule="evenodd" clip-rule="evenodd" d="M7.5 15.75C6.50544 15.75 5.55161 16.1451 4.84835 16.8483C4.14509 17.5516 3.75 18.5054 3.75 19.5C3.75 19.8315 3.8817 20.1495 4.11612 20.3839C4.35054 20.6183 4.66848 20.75 5 20.75H20C20.3315 20.75 20.6495 20.6183 20.8839 20.3839C21.1183 20.1495 21.25 19.8315 21.25 19.5C21.25 18.5054 20.8549 17.5516 20.1516 16.8483C19.4484 16.1451 18.4946 15.75 17.5 15.75H7.5ZM3.08058 15.0806C4.25268 13.9085 5.8424 13.25 7.5 13.25H17.5C19.1576 13.25 20.7473 13.9085 21.9194 15.0806C23.0915 16.2527 23.75 17.8424 23.75 19.5C23.75 20.4946 23.3549 21.4484 22.6516 22.1516C21.9484 22.8549 20.9946 23.25 20 23.25H5C4.00544 23.25 3.05161 22.8549 2.34835 22.1516C1.64509 21.4484 1.25 20.4946 1.25 19.5C1.25 17.8424 1.90848 16.2527 3.08058 15.0806Z" fill="#787777"/>
<path fill-rule="evenodd" clip-rule="evenodd" d="M12.5 3.25C11.1193 3.25 10 4.36929 10 5.75C10 7.13071 11.1193 8.25 12.5 8.25C13.8807 8.25 15 7.13071 15 5.75C15 4.36929 13.8807 3.25 12.5 3.25ZM7.5 5.75C7.5 2.98858 9.73858 0.75 12.5 0.75C15.2614 0.75 17.5 2.98858 17.5 5.75C17.5 8.51142 15.2614 10.75 12.5 10.75C9.73858 10.75 7.5 8.51142 7.5 5.75Z" fill="#787777"/>
</svg>
