<svg width="11" height="11" viewBox="0 0 11 11" fill="none" xmlns="http://www.w3.org/2000/svg">
<path d="M4.65 9C4.7 9.16667 4.76883 9.33967 4.8565 9.519C4.94417 9.69833 5.03367 9.85867 5.125 10H1.5C1.225 10 0.989501 9.902 0.793501 9.706C0.597501 9.51 0.499668 9.27467 0.500001 9V1C0.500001 0.725001 0.598001 0.489501 0.794001 0.293501C0.990001 0.0975008 1.22533 -0.000332484 1.5 8.48897e-07H7.5C7.775 8.48897e-07 8.0105 0.0980009 8.2065 0.294001C8.4025 0.490001 8.50033 0.725334 8.5 1V4.55C8.35 4.53333 8.18333 4.525 8 4.525C7.81667 4.525 7.65 4.53333 7.5 4.55V1H5V4.0625C5 4.1625 4.95833 4.2355 4.875 4.2815C4.79167 4.3275 4.70833 4.32533 4.625 4.275L3.75 3.75L2.875 4.275C2.79167 4.325 2.70833 4.32717 2.625 4.2815C2.54167 4.23583 2.5 4.16267 2.5 4.062V1H1.5V9H4.65ZM8 10.5C7.30833 10.5 6.71867 10.2562 6.231 9.7685C5.74333 9.28083 5.49967 8.69133 5.5 8C5.5 7.30833 5.74383 6.71867 6.2315 6.231C6.71917 5.74333 7.30867 5.49967 8 5.5C8.69167 5.5 9.28133 5.74383 9.769 6.2315C10.2567 6.71917 10.5003 7.30867 10.5 8C10.5 8.69167 10.2562 9.28133 9.7685 9.769C9.28083 10.2567 8.69133 10.5003 8 10.5ZM7.7625 9.0125L9.0375 8.2125C9.12083 8.1625 9.1625 8.09167 9.1625 8C9.1625 7.90833 9.12083 7.8375 9.0375 7.7875L7.7625 6.9875C7.67917 6.9375 7.59367 6.93533 7.506 6.981C7.41833 7.02667 7.37467 7.09967 7.375 7.2V8.8C7.375 8.9 7.41883 8.973 7.5065 9.019C7.59417 9.065 7.6795 9.06283 7.7625 9.0125ZM4.65 1H1.5H7.5H4.5H4.65Z" fill="white"/>
</svg>
